<svg width="413.5924560546875px" height="122.02138671875px" xmlns="http://www.w3.org/2000/svg" viewBox="43.203771972656256 13.989306640625003 413.5924560546875 122.02138671875" style="background:#051103" preserveAspectRatio="xMidYMid"><defs><linearGradient id="editing-glowing-gradient" x1="0.8146601955249185" x2="0.18533980447508147" y1="0.8885729807284856" y2="0.11142701927151444"><stop offset="0" stop-color="#67ff43"></stop><stop offset="1" stop-color="#90ffff"></stop></linearGradient><filter id="editing-glowing" x="-100%" y="-100%" width="300%" height="300%"><feGaussianBlur in="SourceGraphic" result="blur" stdDeviation="10"></feGaussianBlur><feMerge><feMergeNode in="blur"></feMergeNode><feMergeNode in="SourceGraphic"></feMergeNode></feMerge></filter></defs><g filter="url(#editing-glowing)"><g transform="translate(105.57998842000961, 104.78218841552734)"><path d="M27.84-9.86L27.84-9.86L27.84-9.86Q29.06-8.32 29.06-5.34L29.06-5.34L29.06-5.34Q29.06-2.37 26.78-0.54L26.78-0.54L26.78-0.54Q24.51 1.28 20.54 1.28L20.54 1.28L20.54 1.28Q18.24 1.28 14.66 0.77L14.66 0.77L14.66 0.77Q7.62-0.32 5.60-0.32L5.60-0.32L5.60-0.32Q3.58-0.32 2.75-0.22L2.75-0.22L2.75-0.22Q1.92-0.13 0.58 0L0.58 0L8.32-42.24L22.34-42.24L15.94-7.04L15.94-7.04Q16.77-6.91 17.54-6.91L17.54-6.91L19.14-6.91L19.14-6.91Q24.51-6.91 27.84-9.86ZM59.26-10.82L59.26-10.82L59.26-10.82Q60.86-9.73 60.86-7.33L60.86-7.33L60.86-7.33Q60.86-4.93 59.65-3.39L59.65-3.39L59.65-3.39Q58.43-1.86 56.45-0.83L56.45-0.83L56.45-0.83Q52.35 1.28 47.94 1.28L47.94 1.28L47.94 1.28Q43.52 1.28 40.93 0.32L40.93 0.32L40.93 0.32Q38.34-0.64 36.61-2.43L36.61-2.43L36.61-2.43Q33.22-5.82 33.22-12.03L33.22-12.03L33.22-12.03Q33.22-21.70 38.46-27.58L38.46-27.58L38.46-27.58Q44.10-33.92 53.89-33.92L53.89-33.92L53.89-33.92Q59.97-33.92 62.98-31.36L62.98-31.36L62.98-31.36Q65.22-29.44 65.22-26.30L65.22-26.30L65.22-26.30Q65.22-15.04 45.76-15.04L45.76-15.04L45.76-15.04Q45.50-13.38 45.50-11.97L45.50-11.97L45.50-11.97Q45.50-9.02 46.82-7.90L46.82-7.90L46.82-7.90Q48.13-6.78 50.56-6.78L50.56-6.78L50.56-6.78Q52.99-6.78 55.58-7.90L55.58-7.90L55.58-7.90Q58.18-9.02 59.26-10.82ZM46.21-17.79L46.21-17.79L46.21-17.79Q50.75-17.79 53.38-20.61L53.38-20.61L53.38-20.61Q56-23.30 56-27.58L56-27.58L56-27.58Q56-29.06 55.46-29.86L55.46-29.86L55.46-29.86Q54.91-30.66 53.82-30.66L53.82-30.66L53.82-30.66Q52.74-30.66 51.81-30.24L51.81-30.24L51.81-30.24Q50.88-29.82 49.92-28.42L49.92-28.42L49.92-28.42Q47.55-25.22 46.21-17.79ZM68.42-6.40L68.42-6.40L68.42-6.40Q68.42-8.13 69.31-12.48L69.31-12.48L72.70-29.76L68.93-29.76L69.18-31.68L69.18-31.68Q76.86-33.98 84.29-39.62L84.29-39.62L87.36-39.62L85.82-32.64L90.82-32.64L90.24-29.76L85.31-29.76L82.05-12.48L82.05-12.48Q81.22-8.51 81.22-7.17L81.22-7.17L81.22-7.17Q81.22-4.10 83.90-3.46L83.90-3.46L83.90-3.46Q83.26-1.28 80.96 0L80.96 0L80.96 0Q78.66 1.28 75.39 1.28L75.39 1.28L75.39 1.28Q72.13 1.28 70.27-0.77L70.27-0.77L70.27-0.77Q68.42-2.82 68.42-6.40ZM100.42-29.50L93.63-29.50L93.63-29.50Q96-37.70 96.13-46.34L96.13-46.34L97.98-46.59L97.98-46.59Q98.94-46.72 99.65-46.72L99.65-46.72L99.65-46.72Q102.46-46.72 104-45.34L104-45.34L104-45.34Q105.54-43.97 105.54-41.54L105.54-41.54L105.54-41.54Q105.54-38.98 104.38-36.16L104.38-36.16L104.38-36.16Q102.34-31.17 100.42-29.50L100.42-29.50ZM123.90-22.46L123.90-22.46L123.90-22.46Q124.80-24.83 124.80-26.88L124.80-26.88L124.80-26.88Q124.80-30.66 121.73-30.66L121.73-30.66L121.73-30.66Q120.13-30.66 118.82-29.22L118.82-29.22L118.82-29.22Q117.50-27.78 117.50-25.98L117.50-25.98L117.50-25.98Q117.50-24.70 118.53-23.68L118.53-23.68L118.53-23.68Q120-22.27 123.78-19.97L123.78-19.97L123.78-19.97Q127.55-17.66 128.99-15.78L128.99-15.78L128.99-15.78Q130.43-13.89 130.43-11.30L130.43-11.30L130.43-11.30Q130.43-8.70 129.18-6.34L129.18-6.34L129.18-6.34Q127.94-3.97 125.70-2.30L125.70-2.30L125.70-2.30Q120.90 1.28 113.22 1.28L113.22 1.28L113.22 1.28Q109.06 1.28 105.86-0.90L105.86-0.90L105.86-0.90Q102.66-3.01 102.66-5.50L102.66-5.50L102.66-5.50Q102.66-8 104.48-9.47L104.48-9.47L104.48-9.47Q106.30-10.94 108.99-10.94L108.99-10.94L108.99-10.94Q111.68-10.94 113.34-9.92L113.34-9.92L113.34-9.92Q112.51-7.81 112.51-6.40L112.51-6.40L112.51-6.40Q112.51-2.18 116.10-2.18L116.10-2.18L116.10-2.18Q117.63-2.18 118.66-3.14L118.66-3.14L118.66-3.14Q119.68-4.10 119.68-5.76L119.68-5.76L119.68-5.76Q119.68-9.02 114.18-12.48L114.18-12.48L114.18-12.48Q109.70-15.42 108.67-16.58L108.67-16.58L108.67-16.58Q106.94-18.62 106.94-21.18L106.94-21.18L106.94-21.18Q106.94-23.74 108.16-26.18L108.16-26.18L108.16-26.18Q109.38-28.61 111.62-30.34L111.62-30.34L111.62-30.34Q116.29-33.92 124.42-33.92L124.42-33.92L124.42-33.92Q128.58-33.92 131.04-32.26L131.04-32.26L131.04-32.26Q133.50-30.59 133.50-27.78L133.50-27.78L133.50-27.78Q133.50-24.96 131.81-23.36L131.81-23.36L131.81-23.36Q130.11-21.76 127.04-21.76L127.04-21.76L127.04-21.76Q124.93-21.76 123.90-22.46ZM174.08-42.69L174.08-42.69L174.08-42.69Q189.76-42.69 189.76-31.62L189.76-31.62L189.76-31.62Q189.76-25.54 185.86-21.89L185.86-21.89L185.86-21.89Q182.02-18.24 175.30-18.24L175.30-18.24L175.30-18.24Q172.16-18.24 169.73-20.03L169.73-20.03L169.73-20.03Q168.58-20.80 167.81-21.82L167.81-21.82L167.81-21.82Q172.48-21.82 174.94-24.67L174.94-24.67L174.94-24.67Q177.41-27.52 177.41-33.09L177.41-33.09L177.41-33.09Q177.41-38.66 171.90-38.66L171.90-38.66L170.37-38.66L170.37-38.66Q169.98-38.66 169.66-38.59L169.66-38.59L162.30 0L148.42 0L156.29-41.92L156.29-41.92Q163.14-42.56 167.10-42.62L167.10-42.62L167.10-42.62Q171.07-42.69 174.08-42.69ZM205.38-3.52L205.38-3.52L205.38-3.52Q203.39 1.28 197.06 1.28L197.06 1.28L197.06 1.28Q193.86 1.28 191.81-0.96L191.81-0.96L191.81-0.96Q190.14-2.82 190.14-4.93L190.14-4.93L190.14-4.93Q190.14-9.73 192.38-20.22L192.38-20.22L197.06-44.80L210.05-46.08L203.84-13.70L203.84-13.70Q202.75-8.96 202.75-7.30L202.75-7.30L202.75-7.30Q202.75-3.65 205.38-3.52ZM213.60-1.92L213.60-1.92L213.60-1.92Q212.10-3.58 211.42-6.21L211.42-6.21L211.42-6.21Q210.75-8.83 210.75-13.12L210.75-13.12L210.75-13.12Q210.75-17.41 212.22-21.31L212.22-21.31L212.22-21.31Q213.70-25.22 216.38-28.03L216.38-28.03L216.38-28.03Q221.89-33.92 230.98-33.92L230.98-33.92L230.98-33.92Q234.24-33.92 236.61-32.83L236.61-32.83L247.55-33.92L242.82-8.96L242.82-8.96Q242.62-8.19 242.62-6.78L242.62-6.78L242.62-6.78Q242.62-5.38 243.49-4.48L243.49-4.48L243.49-4.48Q244.35-3.58 245.63-3.46L245.63-3.46L245.63-3.46Q244.99-1.28 242.66 0L242.66 0L242.66 0Q240.32 1.28 237.70 1.28L237.70 1.28L237.70 1.28Q235.07 1.28 233.31 0.29L233.31 0.29L233.31 0.29Q231.55-0.70 231.04-2.37L231.04-2.37L231.04-2.37Q230.02-0.77 227.84 0.26L227.84 0.26L227.84 0.26Q225.66 1.28 222.75 1.28L222.75 1.28L222.75 1.28Q219.84 1.28 217.47 0.51L217.47 0.51L217.47 0.51Q215.10-0.26 213.60-1.92ZM227.10-27.90L227.10-27.90L227.10-27.90Q226.37-26.75 225.73-24.80L225.73-24.80L225.73-24.80Q225.09-22.85 224.03-17.63L224.03-17.63L224.03-17.63Q222.98-12.42 222.98-8.70L222.98-8.70L222.98-8.70Q222.98-4.99 223.55-3.90L223.55-3.90L223.55-3.90Q224.13-2.82 225.15-2.82L225.15-2.82L225.15-2.82Q227.20-2.82 228.70-4.77L228.70-4.77L228.70-4.77Q230.21-6.72 230.78-10.18L230.78-10.18L234.18-28.93L234.18-28.93Q232.83-30.08 231.26-30.08L231.26-30.08L231.26-30.08Q229.70-30.08 228.77-29.57L228.77-29.57L228.77-29.57Q227.84-29.06 227.10-27.90ZM271.36-7.23L271.36-7.23L271.36-7.23Q268.03-3.78 261.95-3.78L261.95-3.78L261.95-3.78Q254.34-3.78 252.74-9.34L252.74-9.34L252.74-9.34Q252.22-11.01 252.22-12.86L252.22-12.86L252.22-12.86Q252.22-14.72 252.61-16.64L252.61-16.64L255.62-32.64L268.61-33.92L265.09-15.30L265.09-15.30Q264.96-14.46 264.77-13.57L264.77-13.57L264.77-13.57Q264.58-12.67 264.58-11.74L264.58-11.74L264.58-11.74Q264.58-10.82 264.90-10.21L264.90-10.21L264.90-10.21Q265.22-9.60 265.66-9.22L265.66-9.22L265.66-9.22Q266.43-8.70 267.81-8.70L267.81-8.70L267.81-8.70Q269.18-8.70 270.37-10.37L270.37-10.37L270.37-10.37Q271.55-12.03 272.13-14.91L272.13-14.91L275.65-32.64L288.26-33.92L283.46-8.77L283.46-8.77Q281.09 3.52 276.22 8.38L276.22 8.38L276.22 8.38Q273.73 10.88 270.50 11.87L270.50 11.87L270.50 11.87Q267.26 12.86 263.10 12.86L263.10 12.86L263.10 12.86Q256.38 12.86 252.54 10.75L252.54 10.75L252.54 10.75Q248.70 8.64 248.70 5.12L248.70 5.12L248.70 5.12Q248.70 2.50 250.69 0.99L250.69 0.99L250.69 0.99Q252.67-0.51 255.74-0.51L255.74-0.51L255.74-0.51Q258.43-0.51 260.48 0.64L260.48 0.64L260.48 0.64Q261.70 1.34 262.27 2.24L262.27 2.24L262.27 2.24Q260.80 3.52 260.80 5.63L260.80 5.63L260.80 5.63Q260.80 8.45 263.36 8.45L263.36 8.45L263.36 8.45Q267.58 8.45 270.02-1.28L270.02-1.28L270.02-1.28Q270.72-4.16 271.36-7.23Z" fill="url(#editing-glowing-gradient)"></path></g></g><style>text {
  font-size: 64px;
  font-family: Arial Black;
  dominant-baseline: central;
  text-anchor: middle;
}</style></svg>