<?xml version="1.0" standalone="no"?>
<!DOCTYPE svg PUBLIC "-//W3C//DTD SVG 20010904//EN"
 "http://www.w3.org/TR/2001/REC-SVG-20010904/DTD/svg10.dtd">
<svg version="1.0" xmlns="http://www.w3.org/2000/svg"
 width="300.000000pt" height="300.000000pt" viewBox="0 0 300.000000 300.000000"
 preserveAspectRatio="xMidYMid meet">
<metadata>
Created by potrace 1.10, written by Peter Selinger 2001-2011
</metadata>
<g transform="translate(0.000000,300.000000) scale(0.100000,-0.100000)"
fill="#000000" stroke="none">
<path d="M1836 2007 c-22 -22 -23 -22 -52 -5 -22 14 -47 18 -99 17 -104 -2
-105 -3 -105 -174 0 -156 6 -174 55 -179 44 -4 65 19 65 71 0 43 1 45 45 43 3
0 18 6 35 15 16 8 31 15 33 15 2 0 4 -25 4 -55 0 -64 13 -83 62 -90 26 -3 34
1 43 21 l11 24 33 -25 c30 -23 39 -25 111 -21 43 3 81 5 84 5 12 2 25 48 28
96 2 28 4 51 6 53 2 2 14 -18 27 -45 l25 -48 -24 -53 c-19 -44 -21 -56 -11
-72 17 -26 69 -27 92 -1 9 10 44 80 77 155 49 111 58 139 49 156 -20 38 -93
20 -111 -27 l-10 -26 -25 36 c-23 34 -28 37 -62 32 -43 -6 -38 -6 -120 -1 -35
2 -66 7 -69 10 -7 6 -61 -20 -85 -42 -17 -14 -18 -11 -18 46 0 52 -3 63 -22
76 -30 22 -45 20 -72 -7z m74 -162 l0 -155 -30 0 -30 0 0 155 0 155 30 0 30 0
0 -155z m-116 119 c60 -61 12 -154 -78 -154 l-46 0 0 -60 c0 -60 0 -60 -30
-60 l-30 0 0 150 0 150 79 0 c71 0 81 -2 105 -26z m286 -69 c17 -9 30 -11 30
-5 0 5 11 10 25 10 l25 0 0 -105 c0 -104 0 -105 -24 -105 -13 0 -26 6 -29 13
-4 10 -7 10 -18 0 -20 -20 -83 -16 -112 7 -59 47 -50 151 16 184 40 20 51 20
87 1z m201 -52 l25 -58 24 58 c22 53 26 57 56 57 l33 0 -24 -52 c-13 -29 -41
-93 -63 -143 -39 -86 -42 -90 -75 -93 l-35 -3 28 58 28 58 -42 80 c-22 44 -42
83 -44 88 -2 4 12 7 31 7 32 0 35 -3 58 -57z"/>
<path d="M1670 1900 c0 -27 3 -30 34 -30 37 0 62 21 52 45 -3 10 -19 15 -46
15 -38 0 -40 -2 -40 -30z"/>
<path d="M2007 1832 c-47 -52 28 -126 77 -76 19 18 21 65 4 82 -18 18 -63 14
-81 -6z m66 -18 c10 -10 -12 -44 -28 -44 -18 0 -28 17 -21 35 5 15 37 20 49 9z"/>
<path d="M586 2004 c-13 -12 -16 -41 -17 -132 -1 -64 -2 -124 -3 -132 -3 -33
16 -68 40 -73 56 -10 173 -1 191 16 17 15 21 15 48 -3 61 -40 165 -12 165 44
0 12 5 27 12 34 13 13 29 16 27 5 -4 -27 5 -49 34 -78 27 -27 39 -32 62 -28
69 13 91 84 33 106 -20 7 -25 57 -6 57 6 0 19 6 27 14 9 8 29 16 45 18 24 2
30 -1 33 -22 2 -13 10 -34 17 -45 11 -17 11 -22 0 -33 -25 -23 -12 -54 34 -79
32 -19 70 -16 108 8 57 35 68 75 34 119 -13 18 -16 28 -8 37 17 20 0 61 -32
78 -39 20 -69 19 -108 -5 l-33 -21 6 49 c9 70 -23 95 -87 67 -12 -5 -18 -18
-18 -41 0 -38 -18 -45 -37 -15 -17 28 -59 32 -88 9 -14 -11 -23 -23 -21 -27 2
-3 -3 -17 -13 -30 -15 -19 -20 -21 -32 -9 -80 74 -205 30 -225 -79 -6 -33 -8
-34 -48 -31 l-41 3 -1 102 c0 67 -5 107 -14 117 -16 21 -64 20 -84 0z m74
-134 l0 -120 60 0 c60 0 60 0 60 -30 l0 -30 -92 0 -93 0 0 150 0 150 33 0 32
0 0 -120z m609 88 c-1 -18 -4 -44 -8 -58 -8 -32 -41 -37 -41 -6 0 11 -3 38 -6
59 -6 36 -6 37 25 37 29 0 31 -3 30 -32z m-139 -33 c0 -21 5 -25 30 -25 25 0
30 -4 30 -25 0 -21 -5 -25 -31 -25 l-30 0 3 -52 c3 -49 5 -53 31 -56 21 -3 27
-9 27 -27 0 -46 -85 -42 -110 5 -5 10 -10 44 -10 74 0 43 -3 56 -15 56 -8 0
-15 9 -15 19 0 10 7 21 15 25 8 3 15 17 15 31 0 21 5 25 30 25 25 0 30 -4 30
-25z m-185 -29 c36 -16 65 -59 65 -101 0 -25 -1 -25 -77 -25 -72 0 -76 -1 -61
-17 11 -10 34 -17 65 -17 36 -1 49 -5 51 -17 3 -19 -24 -29 -81 -29 -31 0 -46
7 -73 34 -57 57 -43 140 30 172 39 17 40 17 81 0z m488 -14 c9 -8 17 -18 17
-22 0 -14 -44 -19 -57 -8 -10 8 -17 8 -25 0 -15 -15 -3 -28 31 -35 90 -18 73
-127 -20 -127 -46 0 -93 34 -69 49 8 6 32 8 53 4 51 -8 51 20 0 33 -50 12 -73
51 -54 88 24 45 83 53 124 18z"/>
<path d="M872 1838 c-21 -21 -13 -28 33 -28 25 0 45 4 45 8 0 15 -24 32 -45
32 -12 0 -26 -5 -33 -12z"/>
<path d="M1480 1490 c-14 -5 -51 -16 -82 -24 -31 -9 -70 -28 -87 -42 -24 -20
-34 -23 -50 -15 -28 16 -59 14 -91 -6 -75 -44 -64 -155 20 -198 25 -13 29 -23
36 -72 9 -76 38 -154 68 -183 l25 -22 -24 -37 c-63 -95 -66 -182 -10 -238 l32
-31 -3 -107 -4 -106 38 -16 c22 -10 63 -16 102 -16 101 0 215 9 228 17 24 15
8 77 -27 102 -24 18 -15 118 15 165 25 40 31 69 14 69 -5 0 -10 -12 -10 -26 0
-57 -99 -112 -182 -101 -22 3 -36 1 -32 -4 3 -5 12 -9 20 -9 17 0 17 3 3 -59
-7 -35 -16 -52 -30 -56 -10 -4 -19 -11 -19 -16 0 -6 8 -6 20 1 14 8 26 8 40 0
20 -11 38 -56 26 -68 -12 -11 -109 -7 -149 7 l-38 13 5 57 c3 31 8 65 12 76 7
18 6 19 -11 5 -16 -14 -17 -13 -12 5 3 11 8 32 11 48 5 22 12 27 36 27 19 0
34 7 42 20 7 11 18 20 25 20 18 0 16 45 -2 60 -11 9 -15 33 -15 86 l0 74 53 1
52 2 -69 8 c-100 13 -144 41 -180 112 -38 77 -49 230 -21 303 25 66 68 110
123 128 67 21 82 21 129 0 33 -15 44 -26 52 -54 l9 -35 1 36 c2 69 71 87 135
35 24 -19 30 -32 34 -79 5 -60 -7 -87 -37 -87 -14 1 -13 2 2 11 18 10 18 12
-4 35 -13 14 -40 27 -62 31 -21 3 -34 9 -27 13 6 4 -15 5 -47 2 -69 -5 -147
-33 -188 -67 -28 -23 -30 -29 -30 -97 2 -201 67 -255 253 -213 87 20 136 49
129 76 -7 26 14 20 23 -7 19 -52 -31 -115 -102 -131 -29 -6 -39 -23 -13 -23
15 0 59 -69 69 -110 l7 -25 -16 25 -15 25 7 -30 c4 -16 8 -45 8 -62 0 -18 3
-33 8 -33 7 0 12 53 9 108 -1 31 12 45 20 20 3 -8 19 -2 46 18 54 37 104 133
110 209 6 69 -28 149 -59 140 -12 -4 -19 -2 -19 7 -1 8 -5 7 -14 -5 -9 -11
-15 -14 -18 -6 -3 10 -31 -37 -42 -72 -3 -12 -12 -15 -30 -12 -23 5 -26 10
-26 48 0 24 -3 50 -6 59 -5 13 1 16 28 16 73 0 113 68 84 144 -17 44 -81 102
-126 113 -14 3 -34 12 -45 19 -21 15 -96 17 -135 4z m104 -19 c3 -5 -1 -12
-10 -15 -19 -7 -64 3 -64 15 0 12 67 12 74 0z m-319 -81 c8 -13 -14 -52 -26
-45 -15 10 -47 -4 -52 -24 -5 -19 9 -51 26 -63 15 -9 16 -48 2 -48 -6 0 -25
12 -43 28 -47 39 -53 87 -17 130 22 26 34 32 65 32 21 0 42 -4 45 -10z m512
-53 c3 -20 3 -47 -1 -61 -7 -27 -51 -56 -86 -56 -31 0 -19 24 13 28 41 5 61
42 52 99 -5 35 -4 45 5 37 6 -6 13 -27 17 -47z m-552 -17 c3 -5 1 -10 -4 -10
-6 0 -11 5 -11 10 0 6 2 10 4 10 3 0 8 -4 11 -10z m446 -7 c6 -6 9 -21 7 -34
-4 -23 -5 -23 -17 5 -9 22 -15 26 -23 18 -9 -9 -15 -8 -26 1 -12 9 -16 9 -20
-1 -3 -10 -7 -10 -18 -1 -10 8 -17 7 -30 -5 -18 -19 -13 -33 7 -20 17 10 59
12 65 2 3 -5 10 -6 15 -3 5 4 9 -9 9 -29 0 -19 8 -48 17 -65 17 -29 17 -31 -3
-58 -26 -35 -79 -63 -122 -63 -46 0 -103 26 -109 50 -3 11 -13 20 -22 20 -22
0 -41 19 -41 41 0 28 17 31 40 7 15 -16 21 -18 20 -8 -3 22 11 60 21 60 6 0
13 8 16 18 11 28 29 42 40 31 6 -6 14 -4 23 6 7 8 9 19 5 23 -4 4 -10 1 -12
-6 -3 -8 -9 -10 -17 -3 -13 11 -39 -5 -49 -29 -3 -9 -6 -4 -6 13 -1 20 6 30
22 37 29 13 194 7 208 -7z m-252 -89 c-10 -27 -12 -27 -19 -9 -6 13 -9 15 -9
5 -1 -12 -3 -12 -10 -2 -6 11 -10 10 -15 -4 -3 -9 -9 -15 -12 -12 -9 10 17 63
39 80 21 16 22 16 30 -6 4 -13 3 -35 -4 -52z m401 -83 c0 -10 7 -24 15 -31 8
-7 15 -10 15 -6 0 16 -3 21 -11 19 -5 -2 -9 4 -9 12 0 21 17 19 30 -4 15 -29
12 -137 -5 -179 -29 -69 -96 -149 -79 -94 3 9 -3 4 -12 -13 -10 -17 -19 -25
-21 -18 -3 9 -10 10 -22 4 -13 -7 -21 -2 -39 29 l-22 39 35 17 c46 21 79 75
71 114 -3 17 -9 42 -12 58 -3 17 1 34 11 47 16 20 16 20 10 -2 -9 -31 3 -29
15 2 11 29 30 33 30 6z m-410 -41 c0 -15 -45 -2 -48 13 -3 15 0 16 22 6 14 -7
26 -15 26 -19z m125 -69 l30 1 -30 9 c-28 8 -27 8 7 4 21 -2 40 1 44 6 8 14
34 -9 28 -24 -3 -8 -30 -12 -77 -12 -65 0 -73 2 -86 24 -10 19 -15 21 -22 10
-5 -8 -9 -23 -9 -33 0 -19 0 -19 -21 0 l-21 19 27 22 26 23 37 -25 c21 -14 49
-24 67 -24z m118 29 c-3 -11 -9 -17 -15 -14 -5 3 -4 12 3 20 16 19 18 18 12
-6z m52 -30 c-13 -20 -25 -9 -25 22 0 32 0 32 16 10 8 -12 12 -27 9 -32z
m-221 -36 c14 -1 26 2 26 7 0 6 5 7 12 3 14 -9 58 -12 58 -4 0 3 11 6 25 6 14
1 25 -2 25 -6 0 -10 -64 -20 -137 -20 l-63 0 0 33 c1 32 1 32 14 8 8 -14 24
-25 40 -27z m181 27 c3 -5 1 -12 -5 -16 -5 -3 -10 1 -10 9 0 18 6 21 15 7z
m-282 -118 c14 -4 17 -17 17 -78 0 -57 4 -78 20 -98 11 -14 20 -31 20 -39 -1
-8 -6 -6 -15 6 -14 19 -15 19 -15 -7 0 -55 -99 -63 -123 -9 -6 15 -15 29 -19
33 -4 3 -4 20 1 37 6 20 6 30 0 27 -5 -4 -9 -4 -9 -1 0 12 23 65 46 104 19 33
30 42 42 37 10 -4 25 -10 35 -12z m244 -337 c-4 -36 -12 -61 -26 -75 -12 -12
-21 -27 -21 -33 0 -7 9 -2 19 11 24 32 58 21 69 -22 5 -18 7 -35 5 -39 -2 -5
-35 -8 -74 -8 -67 0 -69 1 -69 24 0 14 -5 28 -11 32 -6 3 -9 22 -7 40 2 19 1
35 -3 36 -4 2 -5 15 -2 31 4 20 11 27 28 27 12 0 38 7 56 15 19 8 36 14 38 15
2 0 1 -24 -2 -54z m-136 -79 c-10 -9 -11 -8 -5 6 3 10 9 15 12 12 3 -3 0 -11
-7 -18z"/>
<path d="M1595 1250 c3 -5 11 -10 16 -10 6 0 7 5 4 10 -3 6 -11 10 -16 10 -6
0 -7 -4 -4 -10z"/>
<path d="M1480 1240 c-8 -5 -12 -11 -9 -14 3 -3 14 1 25 9 21 16 8 20 -16 5z"/>
<path d="M1587 1223 c-13 -13 -7 -20 16 -18 32 4 33 4 17 15 -18 12 -24 12
-33 3z"/>
<path d="M1550 1200 c0 -11 7 -20 16 -20 9 0 12 -5 8 -12 -5 -10 -4 -10 6 -1
9 9 8 15 -9 32 -21 21 -21 21 -21 1z"/>
<path d="M1477 1203 c-13 -13 -7 -19 20 -18 14 0 28 6 31 13 4 13 -39 18 -51
5z"/>
<path d="M1380 1166 c0 -9 5 -16 10 -16 6 0 10 4 10 9 0 6 -4 13 -10 16 -5 3
-10 -1 -10 -9z"/>
<path d="M1620 1176 c0 -2 7 -7 16 -10 8 -3 12 -2 9 4 -6 10 -25 14 -25 6z"/>
<path d="M1430 1152 c-13 -14 -12 -15 2 -9 9 3 18 1 21 -6 2 -6 6 -3 10 7 4 9
3 15 -2 11 -5 -3 -11 -1 -13 4 -1 5 -10 2 -18 -7z"/>
<path d="M1512 1123 c39 -41 73 -39 98 6 7 14 -1 16 -56 16 l-63 0 21 -22z
m61 -10 c-7 -2 -19 -2 -25 0 -7 3 -2 5 12 5 14 0 19 -2 13 -5z"/>
<path d="M1801 1124 c0 -11 3 -14 6 -6 3 7 2 16 -1 19 -3 4 -6 -2 -5 -13z"/>
<path d="M1766 1091 c-6 -10 10 -25 29 -26 6 -1 18 -5 28 -9 23 -11 34 1 21
22 -12 19 -69 29 -78 13z"/>
<path d="M1837 973 c-4 -3 -7 -13 -7 -22 1 -13 3 -13 11 2 11 19 8 33 -4 20z"/>
<path d="M1807 953 c-4 -3 -7 -11 -7 -17 0 -6 5 -5 12 2 6 6 9 14 7 17 -3 3
-9 2 -12 -2z"/>
<path d="M1292 780 c0 -14 2 -19 5 -12 2 6 2 18 0 25 -3 6 -5 1 -5 -13z"/>
<path d="M1310 740 c0 -11 4 -20 9 -20 5 0 7 9 4 20 -3 11 -7 20 -9 20 -2 0
-4 -9 -4 -20z"/>
<path d="M1280 725 c0 -8 5 -15 10 -15 6 0 10 7 10 15 0 8 -4 15 -10 15 -5 0
-10 -7 -10 -15z"/>
<path d="M1301 684 c0 -11 3 -14 6 -6 3 7 2 16 -1 19 -3 4 -6 -2 -5 -13z"/>
<path d="M1460 1400 c0 -5 5 -10 11 -10 5 0 7 5 4 10 -3 6 -8 10 -11 10 -2 0
-4 -4 -4 -10z"/>
<path d="M1650 833 c0 -4 5 -15 10 -23 8 -13 10 -13 10 2 0 9 -4 20 -10 23 -5
3 -10 3 -10 -2z"/>
<path d="M1620 783 c0 -12 5 -25 10 -28 13 -8 13 15 0 35 -8 12 -10 11 -10 -7z"/>
<path d="M1647 753 c-3 -15 -9 -36 -12 -45 -4 -10 -3 -18 3 -18 5 0 12 19 16
41 8 47 2 65 -7 22z"/>
<path d="M1610 665 c-8 -9 -8 -15 -2 -15 12 0 26 19 19 26 -2 2 -10 -2 -17
-11z"/>
</g>
</svg>
